<svg width="512" height="512" viewBox="0 0 512 512" fill="none" xmlns="http://www.w3.org/2000/svg" role="img" aria-labelledby="title desc">
  <title id="title">SpringPaper mark</title>
  <desc id="desc">A cream letter paper with a curled corner, a sage ribbon, and a quiet cherry blossom.</desc>
  <defs>
    <linearGradient id="paper" x1="150" y1="82" x2="382" y2="430" gradientUnits="userSpaceOnUse">
      <stop stop-color="#FFFDF8"/>
      <stop offset="1" stop-color="#FFF7EF"/>
    </linearGradient>
    <linearGradient id="fold" x1="348" y1="92" x2="402" y2="150" gradientUnits="userSpaceOnUse">
      <stop stop-color="#FFE7D6"/>
      <stop offset="1" stop-color="#FFFFFF"/>
    </linearGradient>
    <filter id="shadow" x="94" y="48" width="344" height="428" filterUnits="userSpaceOnUse" color-interpolation-filters="sRGB">
      <feDropShadow dx="0" dy="12" stdDeviation="18" flood-color="#BDAEA5" flood-opacity="0.26"/>
    </filter>
  </defs>

  <rect width="512" height="512" rx="128" fill="#FDF8F3"/>
  <g filter="url(#shadow)">
    <path d="M145 82H342L401 141V414C401 424.493 392.493 433 382 433H145C134.507 433 126 424.493 126 414V101C126 90.5066 134.507 82 145 82Z" fill="url(#paper)" stroke="#ECDDD7" stroke-width="5"/>
    <path d="M342 82V128C342 135.18 347.82 141 355 141H401L342 82Z" fill="url(#fold)" stroke="#ECDDD7" stroke-width="5" stroke-linejoin="round"/>

    <path d="M172 167H326" stroke="#ECDDD7" stroke-width="8" stroke-linecap="round"/>
    <path d="M172 205H356" stroke="#F2E6E0" stroke-width="8" stroke-linecap="round"/>
    <path d="M172 243H304" stroke="#F2E6E0" stroke-width="8" stroke-linecap="round"/>

    <path d="M128 292C176 268 227 269 264 292C301 315 351 315 401 291" stroke="#B9DEC9" stroke-width="23" stroke-linecap="round"/>
    <path d="M128 292C176 268 227 269 264 292C301 315 351 315 401 291" stroke="#9EC9B1" stroke-width="5" stroke-linecap="round" opacity="0.55"/>

    <g transform="translate(326 342)">
      <path d="M29.3 10.7C38.8 3.8 49.5 7.5 51.3 18.2C41.1 20.8 34.3 19.1 29.3 10.7Z" fill="#F8C8DC"/>
      <path d="M28.5 13.1C25.2 1.9 32.5 -6.7 42.4 -2.8C41.3 7.5 37.3 13.1 28.5 13.1Z" fill="#F6B8D0"/>
      <path d="M25.9 14.3C16.3 7.6 17.1 -3.8 27.4 -7.1C32.8 1.8 33.2 8.7 25.9 14.3Z" fill="#F8C8DC"/>
      <path d="M24.6 17C13 17.2 6.8 7.7 13.1 -1C22.9 2.5 27.5 7.6 24.6 17Z" fill="#F6B8D0"/>
      <path d="M26.4 19.3C20.5 29.4 9.2 30 4.9 20.2C13.3 14 20.1 12.8 26.4 19.3Z" fill="#F8C8DC"/>
      <circle cx="27.3" cy="15.8" r="6.2" fill="#D9B779"/>
    </g>
  </g>
</svg>
